PathFileType	4	(X/Y/Z)	/Users/itak/Documents/Research/Walk-IL/dataset/trc/00176_00008.trc
DataRate	CameraRate	NumFrames	NumMarkers	Units	OrigDataRate	OrigDataStartFrame	OrigNumFrames
100.000000	100.000000	4	53	mm	100.000000	154	619
Frame#	Time	RPSI			LPSI			L3			STRN			T10			C7			CLAV			RBAK			LBAK			LSHO			LUPA			LAEL			LAOL			LWTS			LWPS			LFRA			LIFD			LHPS			LHTS			RSHO			RUPA			RAEL			RAOL			RWTS			RWPS			RFRA			RIFD			RHTS			RHPS			RBHD			LFHD			RFHD			LBHD			LHIP			RHIP			RASI			LASI			LKNE			LTHI			LANK			LTIP			LTOE			LMT1			LMT5			LHEE			RKNE			RTHI			RANK			RTIP			RTOE			RMT1			RMT5			RHEE			
		X1	Y1	Z1	X2	Y2	Z2	X3	Y3	Z3	X4	Y4	Z4	X5	Y5	Z5	X6	Y6	Z6	X7	Y7	Z7	X8	Y8	Z8	X9	Y9	Z9	X10	Y10	Z10	X11	Y11	Z11	X12	Y12	Z12	X13	Y13	Z13	X14	Y14	Z14	X15	Y15	Z15	X16	Y16	Z16	X17	Y17	Z17	X18	Y18	Z18	X19	Y19	Z19	X20	Y20	Z20	X21	Y21	Z21	X22	Y22	Z22	X23	Y23	Z23	X24	Y24	Z24	X25	Y25	Z25	X26	Y26	Z26	X27	Y27	Z27	X28	Y28	Z28	X29	Y29	Z29	X30	Y30	Z30	X31	Y31	Z31	X32	Y32	Z32	X33	Y33	Z33	X34	Y34	Z34	X35	Y35	Z35	X36	Y36	Z36	X37	Y37	Z37	X38	Y38	Z38	X39	Y39	Z39	X40	Y40	Z40	X41	Y41	Z41	X42	Y42	Z42	X43	Y43	Z43	X44	Y44	Z44	X45	Y45	Z45	X46	Y46	Z46	X47	Y47	Z47	X48	Y48	Z48	X49	Y49	Z49	X50	Y50	Z50	X51	Y51	Z51	X52	Y52	Z52	X53	Y53	Z53	

155	1.54	818.071533203125	1054.323120117188	308.222412109375	818.5928344726562	1057.4228515625	184.4851379394531	819.6234741210938	1095.833374023438	249.2501220703125	1083.877563476562	1298.275146484375	242.9168853759766	792.4852905273438	1251.2880859375	244.3236846923828	858.1317138671875	1520.720581054688	233.0583343505859	1057.3310546875	1412.9375	233.4825744628906	795.0991821289062	1344.3994140625	342.1328125	850.0323486328125	1495.829345703125	132.8906402587891	926.3253173828125	1483.099487304688	53.0927734375	889.8606567382812	1351.700317382812	-19.43071365356445	900.949951171875	1133.579833984375	-39.22608947753906	850.0065307617188	1119.061401367188	32.57081604003906	1017.996276855469	906.0739135742188	-3.864346027374268	937.59716796875	881.1416625976562	-44.79304885864258	917.582763671875	1022.893310546875	-51.9185791015625	1041.274047851562	721.1763305664062	17.83740425109863	961.5420532226562	812.3729248046875	-39.54788589477539	1032.48486328125	829.2261352539062	-24.52090072631836	924.7288818359375	1496.134765625	414.6697692871094	904.5194091796875	1428.370849609375	483.4741516113281	892.0117797851562	1137.367431640625	529.937255859375	886.689208984375	1131.492309570312	433.3481140136719	1035.450927734375	914.4669189453125	497.5813598632812	964.4544677734375	894.2236938476562	547.0176391601562	919.2376098632812	1064.684448242188	544.7968139648438	1054.430786132812	730.2864990234375	464.9645385742188	1064.95556640625	821.8117065429688	501.5558471679688	994.9925537109375	812.2816162109375	539.5318603515625	902.9081420898438	1667.276000976562	314.6884155273438	1044.461547851562	1745.283569335938	168.8153991699219	1059.215942382812	1742.03173828125	297.3548583984375	877.1525268554688	1677.123046875	179.9849395751953	922.6669921875	991.8823852539062	67.00595092773438	971.5910034179688	1013.528625488281	431.2901000976562	1052.070556640625	1039.773071289062	376.2743835449219	1046.351928710938	1029.704711914062	118.5420532226562	940.9039916992188	495.6584167480469	84.72490692138672	947.4620361328125	639.6231079101562	59.84996032714844	836.3310546875	38.65381622314453	66.69004821777344	891.7596435546875	274.4843139648438	62.45455551147461	1056.519287109375	37.28734588623047	76.96058654785156	1010.316772460938	39.67692565917969	127.1897354125977	941.3134765625	30.75663757324219	18.67704010009766	790.8986206054688	41.23208236694336	139.7642822265625	977.8724975585938	513.0389404296875	405.6680603027344	1025.536987304688	784.1737670898438	435.8695068359375	850.7059936523438	37.7818603515625	407.4971008300781	977.3727416992188	392.1026306152344	385.7306518554688	1075.679809570312	39.83255767822266	372.9157104492188	1018.627746582031	37.73823928833008	327.9906616210938	963.6079711914062	34.18447875976562	443.531005859375	799.2572021484375	37.57167816162109	339.6133422851562	
156	1.55	817.3743286132812	1054.422241210938	309.9271850585938	817.432861328125	1057.751708984375	186.3994293212891	818.8394775390625	1096.188720703125	251.0277252197266	1083.577758789062	1298.06640625	244.1246948242188	792.1047973632812	1251.77001953125	246.3207244873047	858.3447875976562	1521.03173828125	235.0826110839844	1057.252319335938	1412.7734375	234.9290313720703	796.0243530273438	1344.582153320312	344.4054260253906	849.951171875	1496.27978515625	134.8682098388672	925.960205078125	1483.4091796875	54.90214538574219	889.1182861328125	1352.171752929688	-17.65504264831543	899.7537231445312	1134.100219726562	-37.75485992431641	849.0574951171875	1119.50390625	34.16569137573242	1016.852722167969	906.4169921875	-2.837076902389526	936.3799438476562	881.608154296875	-43.66959762573242	916.3579711914062	1023.381408691406	-50.59299087524414	1040.272705078125	721.6105346679688	18.53743553161621	960.348388671875	812.8419189453125	-38.54353713989258	1031.349365234375	829.6680908203125	-23.6866512298584	925.4417724609375	1496.159301757812	416.5027465820312	905.33544921875	1428.35205078125	485.3108215332031	892.513916015625	1137.293212890625	531.4833374023438	886.813232421875	1131.587524414062	434.9118347167969	1035.488159179688	914.2400512695312	498.3148803710938	964.7008056640625	894.0244140625	547.9703979492188	919.7200927734375	1064.540893554688	546.1396484375	1054.18408203125	730.0890502929688	465.3878784179688	1064.965576171875	821.5554809570312	502.0733032226562	995.1337890625	812.0589599609375	540.2684936523438	903.2936401367188	1667.387573242188	316.3888854980469	1044.553955078125	1745.24560546875	170.1794281005859	1059.511840820312	1742.182495117188	298.688232421875	877.2913208007812	1677.068969726562	181.6808319091797	921.3529052734375	992.1030883789062	68.33774566650391	971.3785400390625	1013.453369140625	432.5402221679688	1051.610107421875	1039.715698242188	377.3028564453125	1045.133422851562	1029.8583984375	119.5487594604492	940.9607543945312	495.8067932128906	85.31034851074219	946.9789428710938	639.8214111328125	60.54556274414062	836.3413696289062	38.66097640991211	66.7005615234375	891.7830810546875	274.6148071289062	62.74739456176758	1056.522094726562	37.29376983642578	76.94926452636719	1010.325744628906	39.69041442871094	127.1717910766602	941.3156127929688	30.74793243408203	18.65276527404785	790.9320068359375	41.27749252319336	139.7729034423828	978.1023559570312	512.9127807617188	406.0841674804688	1025.430053710938	784.142822265625	436.6716613769531	850.7030029296875	37.76711654663086	407.4989624023438	977.6329345703125	391.96533203125	386.0699768066406	1075.690063476562	39.82126617431641	372.9176635742188	1018.634765625	37.73511505126953	327.9905700683594	963.6036376953125	34.17104339599609	443.5478210449219	799.261962890625	37.5912971496582	339.6280822753906	
157	1.56	816.5983276367188	1054.560668945312	311.6878967285156	816.2820434570312	1058.06591796875	188.3131713867188	818.0091552734375	1096.555541992188	252.8645172119141	1083.274658203125	1297.854125976562	245.3650207519531	791.701904296875	1252.272338867188	248.4015197753906	858.5660400390625	1521.35595703125	237.1832427978516	1057.150024414062	1412.584350585938	236.4473876953125	796.8666381835938	1344.82177734375	346.7487487792969	849.8612670898438	1496.741821289062	136.9183959960938	925.5646362304688	1483.73095703125	56.78243255615234	888.3176879882812	1352.656982421875	-15.81090259552002	898.5020141601562	1134.630126953125	-36.23258590698242	848.0437622070312	1119.961059570312	35.81616973876953	1015.660339355469	906.8201293945312	-1.8256995677948	935.0906982421875	882.1092529296875	-42.51682281494141	915.0696411132812	1023.900268554688	-49.2227783203125	1039.220336914062	722.0690307617188	19.2509593963623	959.086669921875	813.3277587890625	-37.50754165649414	1030.146362304688	830.1427612304688	-22.84113121032715	926.1959838867188	1496.190673828125	418.3945617675781	906.1958618164062	1428.343872070312	487.2080383300781	893.0370483398438	1137.229614257812	533.09619140625	886.9177856445312	1131.708740234375	436.547119140625	1035.509887695312	914.0123291015625	499.0680541992188	964.9450073242188	893.830810546875	548.9634399414062	920.2184448242188	1064.406494140625	547.5404663085938	1053.887939453125	729.8920288085938	465.8157958984375	1064.956298828125	821.293701171875	502.5958862304688	995.2327270507812	811.8307495117188	541.0282592773438	903.7081909179688	1667.532470703125	318.1565246582031	1044.665771484375	1745.20068359375	171.5753936767578	1059.835083007812	1742.335571289062	300.0554504394531	877.439697265625	1677.010131835938	183.4375457763672	919.975830078125	992.3399658203125	69.71335601806641	971.16015625	1013.374328613281	433.8336791992188	1051.122802734375	1039.652465820312	378.3583679199219	1043.847045898438	1030.020629882812	120.5852508544922	941.0482788085938	495.9462890625	85.90977478027344	946.47705078125	640.027587890625	61.25766372680664	836.3516845703125	38.66918182373047	66.71768188476562	891.8214721679688	274.7469787597656	63.05785369873047	1056.524169921875	37.29956817626953	76.93838500976562	1010.336303710938	39.70409393310547	127.1570205688477	941.3181762695312	30.74038124084473	18.63037109375	790.9653930664062	41.32421875	139.7861480712891	978.30712890625	512.8074951171875	406.5011291503906	1025.252807617188	784.07958984375	437.5424194335938	850.7030639648438	37.7552490234375	407.5021362304688	977.8768920898438	391.8340759277344	386.4166870117188	1075.702514648438	39.80910110473633	372.9184875488281	1018.6416015625	37.72879791259766	327.9882202148438	963.5991821289062	34.15630722045898	443.5635375976562	799.2677001953125	37.61162948608398	339.6471252441406	
158	1.57	815.7230224609375	1054.75	313.4985656738281	815.1184692382812	1058.372924804688	190.2341918945312	817.130615234375	1096.917236328125	254.7612152099609	1082.966430664062	1297.637939453125	246.6346588134766	791.2743530273438	1252.792846679688	250.5673675537109	858.7973022460938	1521.69189453125	239.3600158691406	1057.0244140625	1412.368408203125	238.0323486328125	797.490234375	1345.156616210938	349.1265563964844	849.7609252929688	1497.214721679688	139.0402526855469	925.1358032226562	1484.064697265625	58.73059844970703	887.4509887695312	1353.154052734375	-13.89598083496094	897.1854248046875	1135.169311523438	-34.65809631347656	846.96044921875	1120.430053710938	37.52207946777344	1014.416564941406	907.2776489257812	-0.8241316676139832	933.7319946289062	882.6441040039062	-41.33224105834961	913.7078247070312	1024.444946289062	-47.81011962890625	1038.119140625	722.5528564453125	19.97451591491699	957.7589721679688	813.8323974609375	-36.44009399414062	1028.878173828125	830.6537475585938	-21.98620796203613	926.9915771484375	1496.226196289062	420.3435363769531	907.096923828125	1428.347045898438	489.1636962890625	893.5819702148438	1137.176025390625	534.7760009765625	887.0032958984375	1131.852661132812	438.2546997070312	1035.521240234375	913.7850952148438	499.8428039550781	965.1881103515625	893.642578125	549.9971923828125	920.7325439453125	1064.281494140625	549.0008544921875	1053.5498046875	729.6953125	466.2528686523438	1064.931274414062	821.0280151367188	503.1264953613281	995.2984619140625	811.59912109375	541.8150634765625	904.1546630859375	1667.698364257812	319.989990234375	1044.803466796875	1745.147094726562	173.0024108886719	1060.196044921875	1742.482543945312	301.4552001953125	877.6005249023438	1676.945190429688	185.2602081298828	918.5341796875	992.5840454101562	71.13753509521484	970.9309692382812	1013.291870117188	435.1675415039062	1050.605834960938	1039.582153320312	379.436767578125	1042.489135742188	1030.1923828125	121.6488494873047	941.170654296875	496.0680541992188	86.51210021972656	945.9590454101562	640.2388305664062	61.98419189453125	836.3607788085938	38.67855834960938	66.74092864990234	891.8831176757812	274.8722839355469	63.38596343994141	1056.524658203125	37.30452346801758	76.92801666259766	1010.348205566406	39.71745681762695	127.1465911865234	941.321044921875	30.73366928100586	18.60968208312988	790.9945068359375	41.37097549438477	139.8031005859375	978.4815673828125	512.7246704101562	406.9219970703125	1025.056762695312	784.01611328125	438.4378356933594	850.70654296875	37.74483871459961	407.5097351074219	978.1002807617188	391.7031860351562	386.7746887207031	1075.714965820312	39.79521560668945	372.9180603027344	1018.648986816406	37.72127532958984	327.9833068847656	963.5950927734375	34.1395263671875	443.5788269042969	799.27392578125	37.63175201416016	339.673828125	
